<?xml version="1.0" encoding="utf-8"?>
<!-- Generator: Adobe Illustrator 24.2.3, SVG Export Plug-In . SVG Version: 6.00 Build 0)  -->
<svg version="1.1" id="Layer_1" xmlns="http://www.w3.org/2000/svg" xmlns:xlink="http://www.w3.org/1999/xlink" x="0px" y="0px"
	 viewBox="0 0 20 20" style="enable-background:new 0 0 20 20;" xml:space="preserve">
<style type="text/css">
	.st0{fill:#E6E9ED;}
</style>
<g id="Email_-_Orange">
</g>
<g>
	<g>
		<path class="st0" d="M9.75,18.55v-0.89c3.33,0,6.03-2.71,6.03-6.03V7.6c0-3.33-2.71-6.03-6.03-6.03c-3.33,0-6.03,2.71-6.03,6.03
			v4.02H2.82V7.6c0-3.82,3.11-6.93,6.93-6.93s6.93,3.11,6.93,6.93v4.02C16.68,15.45,13.57,18.55,9.75,18.55z"/>
	</g>
	<g>
		<path class="st0" d="M4.57,7.62C4.49,7.61,4.4,7.6,4.31,7.6c-2.04,0-3.69,1.65-3.69,3.69v0.67c0,2.04,1.65,3.69,3.69,3.69
			c0.09,0,0.17-0.01,0.26-0.01V7.62z"/>
	</g>
	<g>
		<path class="st0" d="M14.93,7.62c0.09-0.01,0.17-0.01,0.26-0.01c2.04,0,3.69,1.65,3.69,3.69v0.67c0,2.04-1.65,3.69-3.69,3.69
			c-0.09,0-0.17-0.01-0.26-0.01V7.62z"/>
	</g>
	<g>
		<path class="st0" d="M11.98,17.99c0,0.56-0.45,1.01-1.01,1.01H8.52c-0.56,0-1.01-0.45-1.01-1.01l0,0c0-0.56,0.45-1.01,1.01-1.01
			h2.46C11.53,16.99,11.98,17.44,11.98,17.99L11.98,17.99z"/>
	</g>
</g>
</svg>
