<?xml version="1.0" encoding="utf-8"?>
<!-- Generator: Adobe Illustrator 24.2.3, SVG Export Plug-In . SVG Version: 6.00 Build 0)  -->
<svg version="1.1" id="Layer_1" xmlns="http://www.w3.org/2000/svg" xmlns:xlink="http://www.w3.org/1999/xlink" x="0px" y="0px"
	 viewBox="0 0 20 20" style="enable-background:new 0 0 20 20;" xml:space="preserve">
<style type="text/css">
	.st0{fill-rule:evenodd;clip-rule:evenodd;fill:#E6E9ED;}
</style>
<path class="st0" d="M11.83,5.42c0.39-0.01,0.79,0,1.18,0c0.05,0,0.1,0,0.16,0V3.36c-0.21-0.02-0.43-0.05-0.65-0.06
	c-0.4-0.02-0.81-0.04-1.22-0.03c-0.62,0.01-1.2,0.16-1.71,0.53C9.01,4.22,8.69,4.81,8.57,5.51C8.52,5.8,8.5,6.1,8.5,6.39
	c-0.01,0.46,0,0.92,0,1.38v0.17H6.53v2.29h1.95V16h2.39v-5.75h1.95c0.1-0.76,0.2-1.52,0.3-2.3c-0.16,0-0.3,0-0.44,0
	c-0.55,0-1.82,0-1.82,0s0.01-1.14,0.02-1.63C10.89,5.64,11.29,5.44,11.83,5.42z"/>
</svg>
