<?xml version="1.0" encoding="utf-8"?>
<!-- Generator: Adobe Illustrator 24.2.3, SVG Export Plug-In . SVG Version: 6.00 Build 0)  -->
<svg version="1.1" id="Layer_1" xmlns="http://www.w3.org/2000/svg" xmlns:xlink="http://www.w3.org/1999/xlink" x="0px" y="0px"
	 viewBox="0 0 147.21 147.21" style="enable-background:new 0 0 147.21 147.21;" xml:space="preserve">
<style type="text/css">
	.st0{fill:#E6E9ED;}
	.st1{font-family:'Berlin';}
	.st2{font-size:40.5434px;}
</style>
<g id="Email_-_Orange">
</g>
<g>
	<g>
		<g>
			<path class="st0" d="M92.85,133.24l-33.38-18.89l-33.29,1.74c-4.73,0.25-9.24-1.36-12.75-4.52c-3.51-3.16-5.58-7.49-5.82-12.21
				L4.44,38.53c-0.51-9.73,6.99-18.06,16.72-18.57l99.69-5.21h0c4.73-0.23,9.24,1.36,12.75,4.52s5.57,7.49,5.82,12.21l3.18,60.83
				c0.51,9.73-6.99,18.06-16.72,18.57l-33.75,1.77L92.85,133.24z M60.53,109.82l27.57,15.6l-0.61-17.01l38.14-2
				c7.27-0.38,12.88-6.61,12.49-13.88l-3.18-60.84c-0.18-3.52-1.73-6.76-4.35-9.12c-2.62-2.36-6-3.55-9.53-3.38h0l-99.68,5.21
				C14.12,24.8,8.51,31.03,8.89,38.3l3.18,60.84c0.18,3.52,1.73,6.76,4.35,9.12c2.62,2.36,6.01,3.57,9.53,3.37L60.53,109.82z"/>
		</g>
	</g>
	<text transform="matrix(0.937 -0.1143 8.670022e-03 1 26.0511 71.0391)"><tspan x="0" y="0" class="st0 st1 st2">Follow</tspan><tspan x="33.2" y="35.44" class="st0 st1 st2">us</tspan></text>
</g>
</svg>
