<?xml version="1.0" encoding="utf-8"?>
<!-- Generator: Adobe Illustrator 24.2.3, SVG Export Plug-In . SVG Version: 6.00 Build 0)  -->
<svg version="1.1" id="Layer_1" xmlns="http://www.w3.org/2000/svg" xmlns:xlink="http://www.w3.org/1999/xlink" x="0px" y="0px"
	 viewBox="0 0 20 20" style="enable-background:new 0 0 20 20;" xml:space="preserve">
<style type="text/css">
	.st0{fill:#E6E9ED;}
</style>
<path class="st0" d="M16.89,6.4c-0.09-0.91-0.44-1.71-1.12-2.36c-0.71-0.68-1.58-0.98-2.53-1.03c-1.62-0.09-5.48-0.14-6.83,0.08
	C4.86,3.34,3.85,4.25,3.42,5.77c-0.33,1.17-0.26,6.59-0.07,7.75c0.26,1.59,1.2,2.61,2.78,3.01c1.09,0.28,6.44,0.24,7.65,0.05
	c1.59-0.26,2.61-1.19,3.03-2.76C17.11,12.62,17,7.49,16.89,6.4z M15.62,13.3c-0.18,1.21-0.99,1.95-2.2,2.09
	c-1.11,0.12-6.09,0.19-7.12-0.1c-0.99-0.28-1.55-0.96-1.72-1.95c-0.16-0.95-0.2-5.7,0-6.97c0.18-1.2,0.98-1.94,2.19-2.08
	c1.22-0.14,5.63-0.15,6.8,0.03c1.2,0.19,1.95,0.99,2.08,2.2C15.77,7.65,15.8,12.08,15.62,13.3z M10.09,6.3
	c-1.96,0-3.54,1.58-3.54,3.54c0,1.95,1.58,3.53,3.53,3.54c1.96,0,3.55-1.58,3.55-3.54C13.64,7.88,12.05,6.3,10.09,6.3z M10.07,12.13
	c-1.25,0-2.27-1.03-2.27-2.3c0-1.26,1.03-2.28,2.3-2.28c1.26,0,2.28,1.03,2.28,2.3C12.38,11.12,11.36,12.13,10.07,12.13z M14.6,6.17
	c0,0.46-0.37,0.82-0.83,0.82c-0.46,0-0.83-0.36-0.83-0.82c0-0.47,0.37-0.84,0.84-0.83C14.24,5.33,14.6,5.71,14.6,6.17z"/>
</svg>
