<?xml version="1.0" encoding="utf-8"?>
<!-- Generator: Adobe Illustrator 24.2.3, SVG Export Plug-In . SVG Version: 6.00 Build 0)  -->
<svg version="1.1" id="Layer_1" xmlns="http://www.w3.org/2000/svg" xmlns:xlink="http://www.w3.org/1999/xlink" x="0px" y="0px"
	 viewBox="0 0 20 20" style="enable-background:new 0 0 20 20;" xml:space="preserve">
<style type="text/css">
	.st0{fill:#E6E9ED;}
</style>
<path class="st0" d="M3.42,6.53h2.87v9.2H3.42V6.53z M4.85,1.95c0.92,0,1.66,0.74,1.66,1.66c0,0.92-0.74,1.66-1.66,1.66
	c-0.92,0-1.66-0.74-1.66-1.66C3.19,2.7,3.93,1.95,4.85,1.95"/>
<path class="st0" d="M8.08,6.53h2.74v1.26h0.04c0.38-0.72,1.32-1.49,2.71-1.49c2.9,0,3.43,1.91,3.43,4.38v5.05h-2.86v-4.47
	c0-1.07-0.02-2.44-1.49-2.44c-1.49,0-1.72,1.16-1.72,2.36v4.55H8.08V6.53z"/>
</svg>
