<?xml version="1.0" encoding="utf-8"?>
<!-- Generator: Adobe Illustrator 24.2.3, SVG Export Plug-In . SVG Version: 6.00 Build 0)  -->
<svg version="1.1" id="Layer_1" xmlns="http://www.w3.org/2000/svg" xmlns:xlink="http://www.w3.org/1999/xlink" x="0px" y="0px"
	 viewBox="0 0 20 20" style="enable-background:new 0 0 20 20;" xml:space="preserve">
<style type="text/css">
	.st0{fill-rule:evenodd;clip-rule:evenodd;fill:#E6E9ED;}
</style>
<path class="st0" d="M7.14,13.51c-1.66-0.06-2.71-1.25-2.98-2.22c0.46,0.09,0.92,0.07,1.37-0.04c0.01,0,0.02-0.01,0.05-0.02
	c-0.9-0.21-1.6-0.69-2.08-1.47c-0.32-0.52-0.47-1.08-0.47-1.7c0.45,0.24,0.92,0.38,1.43,0.39C3.77,7.95,3.32,7.31,3.13,6.49
	C2.95,5.68,3.07,4.9,3.48,4.17c1.74,2.04,3.93,3.16,6.61,3.35c-0.02-0.13-0.04-0.24-0.05-0.35c-0.09-0.75,0.06-1.46,0.47-2.09
	c0.51-0.8,1.24-1.3,2.17-1.45c1.08-0.18,2.02,0.13,2.8,0.89c0.05,0.05,0.1,0.07,0.17,0.05c0.66-0.14,1.28-0.38,1.86-0.72
	c0.01-0.01,0.03-0.01,0.04-0.02c0,0,0.01,0,0.02,0c-0.25,0.75-0.71,1.32-1.37,1.74c0.62-0.07,1.21-0.23,1.78-0.48
	C17.99,5.1,18,5.1,18,5.11c-0.12,0.16-0.24,0.32-0.37,0.48c-0.34,0.42-0.73,0.79-1.16,1.11c-0.04,0.03-0.05,0.05-0.05,0.1
	c0.02,0.47,0,0.95-0.06,1.42c-0.12,1-0.4,1.95-0.83,2.85c-0.44,0.94-1.01,1.78-1.73,2.53c-1.22,1.26-2.69,2.07-4.4,2.45
	c-0.59,0.13-1.18,0.2-1.78,0.21c-1.85,0.05-3.55-0.41-5.13-1.38c-0.02-0.01-0.04-0.03-0.08-0.05c1.12,0.12,2.18-0.02,3.2-0.44
	C6.16,14.17,6.66,13.88,7.14,13.51z"/>
</svg>
